<svg xmlns="http://www.w3.org/2000/svg" viewBox="0 0 1200 630" width="1200" height="630">
  <defs>
    <linearGradient id="bg" x1="0%" y1="0%" x2="100%" y2="100%">
      <stop offset="0%" stop-color="#5c1f2e"/>
      <stop offset="100%" stop-color="#3d1420"/>
    </linearGradient>
    <radialGradient id="glow" cx="50%" cy="40%" r="60%">
      <stop offset="0%" stop-color="#c9a961" stop-opacity="0.18"/>
      <stop offset="100%" stop-color="#c9a961" stop-opacity="0"/>
    </radialGradient>
  </defs>

  <rect width="1200" height="630" fill="url(#bg)"/>
  <rect width="1200" height="630" fill="url(#glow)"/>

  <!-- 장식 원 -->
  <circle cx="600" cy="250" r="200" fill="none" stroke="#c9a961" stroke-opacity="0.12" stroke-width="1.5"/>
  <circle cx="600" cy="250" r="155" fill="none" stroke="#c9a961" stroke-opacity="0.2" stroke-width="1" stroke-dasharray="4 6"/>

  <!-- 하트 -->
  <path d="M600 305 C600 305 540 265 540 225 C540 202 558 188 578 188 C590 188 600 196 600 206 C600 196 610 188 622 188 C642 188 660 202 660 225 C660 265 600 305 600 305 Z" fill="#c9a961"/>

  <!-- 상단 라벨 -->
  <text x="600" y="120" font-family="Georgia, serif" font-size="22" font-weight="500" fill="#c9a961" text-anchor="middle" letter-spacing="8" font-style="italic">EST. 2026  ·  16 LOVE TYPES</text>

  <!-- 메인 타이틀 -->
  <text x="600" y="420" font-family="NanumSquareRound, 'Noto Sans CJK KR', sans-serif" font-size="62" font-weight="bold" fill="#f5ede0" text-anchor="middle" letter-spacing="-2">당신의 연애는 어떤 모양인가요?</text>

  <!-- 서브 -->
  <text x="600" y="478" font-family="NanumSquareRound, 'Noto Sans CJK KR', sans-serif" font-size="27" font-weight="400" fill="#e0c896" text-anchor="middle" letter-spacing="-0.5">MBTI처럼 알아보는 나의 연애 유형 · 24문항 · 약 3분</text>

  <!-- 하단 로고 -->
  <text x="600" y="560" font-family="Georgia, serif" font-size="30" font-weight="bold" fill="#c9a961" text-anchor="middle" font-style="italic">Love Type 16</text>
</svg>
